<?xml version="1.0" encoding="UTF-8"?>
<svg width="199px" height="199px" viewBox="0 0 199 199" version="1.1" xmlns="http://www.w3.org/2000/svg" xmlns:xlink="http://www.w3.org/1999/xlink">
    <!-- Generator: Sketch 47.1 (45422) - http://www.bohemiancoding.com/sketch -->
    <title>Page 1</title>
    <desc>Created with Sketch.</desc>
    <defs>
        <polygon id="path-1" points="198.9465 0 0.0005 0 0.0005 198.9468 198.9465 198.9468"></polygon>
    </defs>
    <g id="Page-1" stroke="none" stroke-width="1" fill="none" fill-rule="evenodd">
        <g>
            <mask id="mask-2" fill="white">
                <use xlink:href="#path-1"></use>
            </mask>
            <g id="Clip-2"></g>
            <path d="M141.9585,113.9848 C141.9585,113.9848 134.7065,145.0678 99.4735,145.0678 C64.2435,145.0678 56.9905,113.9848 56.9905,113.9848 L39.3755,113.9848 C39.3755,113.9848 50.2535,161.6508 99.4735,161.6508 C148.1755,161.6508 159.5735,113.9848 159.5735,113.9848 L141.9585,113.9848 Z M99.4735,182.3748 C53.6935,182.3748 16.5785,145.2588 16.5785,99.4778 C16.5785,53.6958 53.6935,16.5788 99.4735,16.5788 C145.2575,16.5788 182.3725,53.6938 182.3725,99.4758 C182.3725,145.2568 145.2595,182.3748 99.4735,182.3748 L99.4735,182.3748 Z M99.4735,-0.0002 C44.5365,-0.0002 0.0005,44.5368 0.0005,99.4738 C0.0005,154.4088 44.5365,198.9468 99.4735,198.9468 C154.4085,198.9468 198.9465,154.4088 198.9465,99.4738 C198.9465,44.5368 154.4085,-0.0002 99.4735,-0.0002 L99.4735,-0.0002 Z M129.5245,84.9688 C136.9645,84.9688 142.9955,78.9388 142.9955,71.4978 C142.9955,64.0568 136.9645,58.0268 129.5245,58.0268 C122.0855,58.0268 116.0535,64.0568 116.0535,71.4978 C116.0535,78.9388 122.0855,84.9688 129.5245,84.9688 L129.5245,84.9688 Z M69.4245,84.9688 C76.8655,84.9688 82.8955,78.9388 82.8955,71.4978 C82.8955,64.0568 76.8655,58.0268 69.4245,58.0268 C61.9855,58.0268 55.9535,64.0568 55.9535,71.4978 C55.9535,78.9388 61.9875,84.9688 69.4245,84.9688 L69.4245,84.9688 Z" id="Fill-1" fill="#FFFFFF" mask="url(#mask-2)"></path>
        </g>
    </g>
</svg>